<svg xmlns="http://www.w3.org/2000/svg" viewBox="0 0 120 60"><path d="M38.728 24.645a1.725 1.725 0 01-.518-1.268c0-.501.173-.924.518-1.27a1.725 1.725 0 011.269-.517c.5 0 .923.173 1.268.518.345.345.518.768.518 1.269 0 .5-.173.923-.518 1.268a1.726 1.726 0 01-1.268.518c-.501 0-.924-.172-1.27-.518zm2.79 12.31h-3.044v-10.92h3.045zM43.589 22.768h5.744v14.187h-3.045V25.467h-2.7v-2.7zM54.133 23.56c.94-.745 2.114-1.117 3.522-1.117 1.407 0 2.577.372 3.511 1.116.934.745 1.4 1.662 1.4 2.75 0 1.09-.419 2.027-1.258 2.812 1.177.907 1.766 2.098 1.766 3.572 0 1.245-.5 2.294-1.502 3.147-1.002.852-2.307 1.278-3.917 1.278-1.61 0-2.916-.426-3.918-1.278-1.001-.853-1.502-1.902-1.502-3.147 0-1.474.589-2.665 1.766-3.572-.852-.798-1.279-1.739-1.279-2.821 0-1.083.47-1.996 1.411-2.74zm1.98 10.442a2.71 2.71 0 001.542.477c.555 0 1.069-.159 1.542-.477.474-.318.71-.781.71-1.39 0-.609-.23-1.076-.69-1.4a2.645 2.645 0 00-1.562-.488c-.582 0-1.103.163-1.563.487-.46.325-.69.792-.69 1.401 0 .61.236 1.072.71 1.39zm.192-6.2c.386.324.835.486 1.35.486.514 0 .964-.162 1.35-.487.385-.324.578-.727.578-1.207 0-.48-.19-.883-.568-1.208a2.021 2.021 0 00-1.36-.487 2.02 2.02 0 00-1.36.487c-.38.325-.569.727-.569 1.208 0 .48.193.883.579 1.207zM68.656 30.866v6.09H65.61v-10.92h3.045v1.218c.92-.934 1.955-1.401 3.105-1.401s2.114.406 2.892 1.218c.778.812 1.167 1.894 1.167 3.248v6.637h-3.044v-6.17c0-1.678-.616-2.517-1.847-2.517-.609 0-1.14.22-1.594.66-.453.44-.68 1.085-.68 1.937zM88.04 35.372c-1.232 1.164-2.677 1.746-4.334 1.746-1.658 0-3.028-.51-4.11-1.533-1.083-1.021-1.624-2.391-1.624-4.11 0-1.718.55-3.085 1.654-4.1 1.103-1.015 2.405-1.522 3.907-1.522 1.502 0 2.778.454 3.826 1.36 1.049.907 1.573 2.152 1.573 3.735v1.624h-7.956c.095.595.406 1.082.934 1.461a2.987 2.987 0 001.786.569c1.069 0 1.948-.359 2.639-1.076zm-2.924-6.475c-.42-.351-.93-.527-1.532-.527s-1.154.183-1.654.548c-.501.365-.792.86-.873 1.482h4.79c-.068-.65-.311-1.15-.73-1.503zM93.479 26.036l1.867 2.922 1.928-2.922h3.572l-3.755 5.338 3.897 5.581h-3.633l-2.13-3.004-2.071 3.004h-3.511l3.815-5.56-3.612-5.36zM106.327 28.228v4.891c0 .42.108.748.324.985.216.237.474.355.772.355.568 0 1.048-.257 1.44-.771L110 35.819c-.947.866-1.945 1.299-2.994 1.299-1.048 0-1.935-.345-2.659-1.035-.723-.69-1.085-1.63-1.085-2.822v-5.033h-1.28v-2.192h1.28v-3.268h3.064v3.268h2.639v2.192z" fill="#009688"/><g><g transform="matrix(.20165 0 0 .20165 5.085 8.571)"><path d="M88.822 51.582v25.966l29.179 74.943s8.908 18.303-16.57 22.763H43.308s-23.747-2.478-18.054-21.281l30.664-76.424V51.582z" fill="#009688"/><path d="M89.438 48.563H54.435c-2.835 0-5.141-2.522-5.141-5.638 0-3.118 2.305-5.64 5.141-5.64h35.003c2.848 0 5.15 2.522 5.15 5.64 0 3.116-2.303 5.638-5.15 5.638z" fill="#004d40"/><path d="M80.204 93.979c3.756 0 6.819 3.67 6.819 8.215 0 4.525-3.065 8.204-6.819 8.204-3.765 0-6.819-3.679-6.819-8.204 0-4.547 3.054-8.215 6.819-8.215z" fill="#fff"/><ellipse ry="6.928" rx="5.748" cy="108.362" cx="59.271" fill="#fff"/><path d="M91.417 75.827v-12.35s15.661-3.453 23.488 14.763c0-.001-12.198 8.887-23.488-2.413zM53.059 75.827v-12.35S37.396 60.024 29.573 78.24c0-.001 12.186 8.887 23.486-2.413z" fill="#004d40"/><path d="M100.833 126.935c-25.467-7.9-46.878-3.659-57.343-.453l-10.553 25.401c-4.751 15.164 15.087 17.157 15.087 17.157h48.545c21.279-3.595 13.842-18.347 13.842-18.347z" fill="#fff"/><path d="M64.131 136.373c0 2.739-3.681 4.967-8.215 4.967s-8.204-2.229-8.204-4.967c0-2.75 3.67-4.97 8.204-4.97 4.536.002 8.215 2.22 8.215 4.97zM93.345 136.373c0 2.739-3.681 4.967-8.204 4.967-4.547 0-8.215-2.229-8.215-4.967 0-2.75 3.668-4.97 8.215-4.97 4.525.002 8.204 2.22 8.204 4.97z" fill="#004d40"/></g></g></svg>